<?xml version="1.0" encoding="UTF-8" standalone="no"?>
<svg width="1702px" height="408px" viewBox="0 0 1702 408" version="1.1" xmlns="http://www.w3.org/2000/svg" xmlns:xlink="http://www.w3.org/1999/xlink" xmlns:sketch="http://www.bohemiancoding.com/sketch/ns">
    <title>minableLogo</title>
    <description>Created with Sketch (http://www.bohemiancoding.com/sketch)</description>
    <defs></defs>
    <g id="Page-1" stroke="none" stroke-width="1" fill="none" fill-rule="evenodd" sketch:type="MSPage">
        <g id="minableLogo" sketch:type="MSArtboardGroup">
            <path d="M1511,0 L1563.45017,0 L1565,2.2737619 L1565,74.5 L1565,81 L1578,81 L1578,74.5 L1578,21.3460608 L1578,21.3460608 L1702.5,204 L1563.45017,408 L0,408 L0,0 L70,0 L70,0 L70,1.26875 L70,43.73125 L70,47.23125 L77,47.23125 L77,43.73125 L77,1.26875 L77,0 L131,0 L131,1.26875 L131,43.73125 L131,47.23125 L138,47.23125 L138,43.73125 L138,1.26875 L138,1.77635684e-15 L138,0 L192,0 L192,1.77635684e-15 L192,1.26875 L192,43.73125 L192,47.23125 L199,47.23125 L199,43.73125 L199,1.26875 L199,0 L252,0 L252,2.26875 L252,44.73125 L252,48.23125 L259,48.23125 L259,44.73125 L259,2.26875 L259,0 L313,0 L313,74.5 L313,81 L326,81 L326,74.5 L326,-3.55271368e-15 L326,0 L380,0 L380,0 L380,0.275 L380,43.725 L380,47.225 L387,47.225 L387,43.725 L387,0.275 L387,0 L443,0 L443,0.275 L443,43.725 L443,47.225 L450,47.225 L450,43.725 L450,0.275 L450,0 L505,0 L505,0 L505,0.275 L505,43.725 L505,47.225 L512,47.225 L512,43.725 L512,0.275 L512,0 L568,0 L568,1.275 L568,44.725 L568,48.225 L575,48.225 L575,44.725 L575,1.275 L575,1.77635684e-15 L575,0 L626,0 L626,0 L626,74.5 L626,81 L639,81 L639,74.5 L639,-1.77635684e-15 L690,-3.55271368e-15 L690,0 L690,0.275 L690,43.725 L690,47.225 L697,47.225 L697,43.725 L697,0.275 L697,1.77635684e-15 L753,1.77635684e-15 L753,0.275 L753,43.725 L753,47.225 L760,47.225 L760,43.725 L760,0.275 L760,0 L760,1.77635684e-15 L815,0 L815,0 L815,0.275 L815,43.725 L815,47.225 L822,47.225 L822,43.725 L822,0.275 L822,1.77635684e-15 L878,0 L878,1.275 L878,44.725 L878,48.225 L885,48.225 L885,44.725 L885,1.275 L885,7.10542736e-15 L885,0 L939,-1.77635684e-15 L939,74.5 L939,81 L952,81 L952,74.5 L952,-3.55271368e-15 L952,0 L1003,0 L1003,0 L1003,0.275 L1003,43.725 L1003,47.225 L1010,47.225 L1010,43.725 L1010,0.275 L1010,0 L1066,0 L1066,0.275 L1066,43.725 L1066,47.225 L1073,47.225 L1073,43.725 L1073,0.275 L1073,-3.55271368e-15 L1073,0 L1128,0 L1128,0 L1128,0.275 L1128,43.725 L1128,47.225 L1135,47.225 L1135,43.725 L1135,0.275 L1135,0 L1191,0 L1191,1.275 L1191,44.725 L1191,48.225 L1198,48.225 L1198,44.725 L1198,1.275 L1198,7.10542736e-15 L1198,0 L1252,0 L1252,-1.77635684e-15 L1252,75.5 L1252,82 L1265,82 L1265,75.5 L1265,0 L1316,0 L1316,0.275 L1316,43.725 L1316,47.225 L1323,47.225 L1323,43.725 L1323,0.275 L1323,0 L1379,0 L1379,0.275 L1379,43.725 L1379,47.225 L1386,47.225 L1386,43.725 L1386,0.275 L1386,0 L1386,0 L1441,0 L1441,0 L1441,0.275 L1441,43.725 L1441,47.225 L1448,47.225 L1448,43.725 L1448,0.275 L1448,0 L1504,0 L1504,1.275 L1504,44.725 L1504,48.225 L1511,48.225 L1511,44.725 L1511,1.275 L1511,1.0658141e-14 Z" id="Rectangle-14" fill="#222222" sketch:type="MSShapeGroup"></path>
            <path d="M850.536621,336 L781.426758,336 L781.426758,326.976562 C777.666973,329.339856 774.229508,331.353996 771.114258,333.019043 C767.999008,334.68409 764.883805,336.02685 761.768555,337.047363 C758.653305,338.067876 755.430681,338.819822 752.100586,339.303223 C748.770491,339.786624 745.118184,340.02832 741.143555,340.02832 C731.15327,340.02832 722.210489,338.658705 714.314941,335.919434 C706.419394,333.180162 699.759304,329.420434 694.334473,324.640137 C690.825351,321.54794 687.844405,318.096188 685.391602,314.284834 L685.391602,336 L609.175781,336 L609.175781,239.964844 C609.175781,230.619094 606.705103,223.287624 601.763672,217.970215 C596.822241,212.652805 590.269572,209.994141 582.105469,209.994141 C576.519503,209.994141 570.879911,211.22948 565.186523,213.700195 C559.493136,216.170911 553.960964,220.790005 548.589844,227.557617 L548.589844,291.849609 L575.660156,291.849609 L575.660156,336 L472.977051,336 L379.800781,336 L307.452148,336 L307.452148,240.287109 C307.452148,230.833937 305.008325,223.421902 300.120605,218.050781 C295.232886,212.679661 288.43852,209.994141 279.737305,209.994141 C273.72165,209.994141 268.055202,211.417466 262.737793,214.26416 C257.420384,217.110854 252.129909,222.025356 246.866211,229.007812 C246.973633,230.189459 247.027344,231.397943 247.027344,232.633301 L247.027344,236.419922 L247.027344,291.849609 L271.197266,291.849609 L271.197266,336 L194.981445,336 L194.981445,239.964844 C194.981445,235.453102 194.28321,231.371112 192.886719,227.71875 C191.490227,224.066388 189.556653,220.951185 187.085938,218.373047 C184.615222,215.794909 181.688005,213.780769 178.304199,212.330566 C174.920393,210.880364 171.18752,210.101563 167.105469,209.994141 C161.734348,209.886718 156.175322,211.068347 150.428223,213.539062 C144.681124,216.009778 139.175808,220.575162 133.912109,227.235352 L133.912109,291.849609 L160.660156,291.849609 L160.660156,336 L56.890625,336 L56.890625,291.849609 L81.7050781,291.849609 L81.7050781,213.216797 L57.2128906,213.216797 L57.2128906,169.066406 L133.589844,169.066406 L133.589844,183.568359 C140.464878,178.089816 148.199176,173.739274 156.792969,170.516602 C165.386762,167.293929 174.248978,165.682617 183.379883,165.682617 C196.055727,165.682617 206.932084,167.911599 216.009277,172.369629 C225.086471,176.827659 232.203099,183.622025 237.359375,192.75293 C240.904315,188.7783 244.905739,185.152848 249.36377,181.876465 C253.8218,178.600081 258.57517,175.75343 263.624023,173.336426 C268.672877,170.919422 273.963351,169.039557 279.495605,167.696777 C285.02786,166.353997 290.694307,165.682617 296.495117,165.682617 C316.905375,165.682617 332.588812,171.322209 343.545898,182.601562 C354.502984,193.880916 359.981445,210.370009 359.981445,232.069336 L359.981445,291.849609 L379.800781,291.849609 L401.070312,291.849609 L401.070312,213.216797 L375.933594,213.216797 L375.933594,169.066406 L450.860352,169.066406 L450.860352,291.849609 L472.977051,291.849609 L496.382812,291.849609 L496.382812,213.216797 L472.212891,213.216797 L472.212891,169.066406 L548.267578,169.066406 L548.267578,183.729492 C555.250035,178.250949 563.064898,173.927262 571.712402,170.758301 C580.359907,167.58934 589.463819,166.004883 599.024414,166.004883 C619.112405,166.004883 634.581,171.61762 645.430664,182.843262 C656.280328,194.068904 661.705078,210.477431 661.705078,232.069336 L661.705078,291.849609 L677.739493,291.849609 L677.739493,291.849609 C677.577227,290.108705 677.496094,288.336245 677.496094,286.532227 C677.496094,278.797813 678.97313,271.65433 681.927246,265.101562 C684.881362,258.548795 689.151339,252.936059 694.737305,248.263184 C700.32327,243.590309 707.171346,239.938001 715.281738,237.306152 C723.39213,234.674303 732.657174,233.358398 743.077148,233.358398 C750.70414,233.358398 757.659637,233.761226 763.943848,234.566895 C770.228059,235.372563 776.055637,236.366205 781.426758,237.547852 L781.426758,232.391602 C781.426758,228.202127 780.621102,224.576675 779.009766,221.515137 C777.398429,218.453598 775.142593,215.929209 772.242188,213.941895 C769.341782,211.95458 765.850606,210.504399 761.768555,209.591309 C757.686503,208.678218 753.22854,208.22168 748.394531,208.22168 C738.296825,208.22168 729.407753,209.215322 721.727051,211.202637 C714.046348,213.189951 706.661168,216.063458 699.571289,219.823242 L684.102539,188.563477 C695.059625,181.043908 706.526796,175.296895 718.504395,171.322266 C730.481993,167.347636 743.184503,165.360352 756.612305,165.360352 C767.032279,165.360352 776.673296,166.515125 785.535645,168.824707 C794.397994,171.134289 801.998015,174.894017 808.335938,180.104004 C814.67386,185.313991 819.642072,192.108357 823.240723,200.487305 C826.839373,208.866253 828.638672,219.071229 828.638672,231.102539 L828.638672,291.849609 L850.037109,291.849609 L850.037109,129.427734 L826.672852,129.427734 L826.672852,85.2773438 L899.504883,85.2773438 L899.504883,172.772461 C905.305693,169.979478 911.267548,167.831062 917.390625,166.327148 C923.513702,164.823235 929.797819,164.071289 936.243164,164.071289 C948.596741,164.071289 960.037057,166.380836 970.564453,171 C981.09185,175.619164 990.168907,181.903281 997.795898,189.852539 C1005.42289,197.801798 1011.4116,207.093697 1015.76221,217.728516 C1020.11281,228.363334 1022.28809,239.642519 1022.28809,251.566406 C1022.28809,263.597716 1020.16653,274.930611 1015.92334,285.56543 C1011.68015,296.200248 1005.74516,305.465293 998.118164,313.36084 C990.491173,321.256387 981.414115,327.486794 970.886719,332.052246 C960.359322,336.617699 948.811586,338.900391 936.243164,338.900391 C929.475552,338.900391 923.030304,338.255866 916.907227,336.966797 C910.784149,335.677728 904.983426,333.851574 899.504883,331.488281 L899.504883,336 L850.536621,336 Z M398.492188,115.248047 C398.492188,111.273418 399.217278,107.540545 400.66748,104.049316 C402.117683,100.558088 404.131823,97.5234504 406.709961,94.9453125 C409.288099,92.3671746 412.322736,90.3261794 415.813965,88.8222656 C419.305193,87.3183519 423.091776,86.5664062 427.173828,86.5664062 C431.041035,86.5664062 434.693342,87.3183519 438.130859,88.8222656 C441.568377,90.3261794 444.576159,92.3671746 447.154297,94.9453125 C449.732435,97.5234504 451.77343,100.558088 453.277344,104.049316 C454.781258,107.540545 455.533203,111.273418 455.533203,115.248047 C455.533203,119.222676 454.781258,122.955549 453.277344,126.446777 C451.77343,129.938006 449.732435,132.972643 447.154297,135.550781 C444.576159,138.128919 441.568377,140.169914 438.130859,141.673828 C434.693342,143.177742 431.041035,143.929688 427.173828,143.929688 C423.091776,143.929688 419.305193,143.177742 415.813965,141.673828 C412.322736,140.169914 409.288099,138.128919 406.709961,135.550781 C404.131823,132.972643 402.117683,129.938006 400.66748,126.446777 C399.217278,122.955549 398.492188,119.222676 398.492188,115.248047 Z M744.688477,302.000977 C752.315468,302.000977 759.244109,300.765637 765.474609,298.294922 C771.705109,295.824206 777.022439,292.816424 781.426758,289.271484 L781.426758,268.001953 L742.754883,268.001953 C740.284167,268.001953 737.867199,268.377926 735.503906,269.129883 C733.140613,269.88184 731.019052,270.956048 729.13916,272.352539 C727.259268,273.74903 725.755377,275.467763 724.627441,277.508789 C723.499506,279.549815 722.935547,281.913073 722.935547,284.598633 C722.935547,289.540064 724.734845,293.675765 728.333496,297.005859 C731.932147,300.335954 737.383753,302.000977 744.688477,302.000977 Z M932.859375,208.543945 C925.769496,208.543945 919.404813,210.155257 913.765137,213.37793 C908.12546,216.600602 903.37209,221.219696 899.504883,227.235352 L899.504883,277.186523 C902.9424,282.342799 907.534639,286.505355 913.281738,289.674316 C919.028837,292.843278 925.44723,294.427734 932.537109,294.427734 C938.015652,294.427734 943.225561,293.434092 948.166992,291.446777 C953.108423,289.459463 957.43211,286.612811 961.138184,282.906738 C964.844257,279.200665 967.771474,274.742702 969.919922,269.532715 C972.06837,264.322728 973.142578,258.441439 973.142578,251.888672 C973.142578,245.228482 972.06837,239.212917 969.919922,233.841797 C967.771474,228.470676 964.871112,223.905292 961.21875,220.145508 C957.566388,216.385723 953.296411,213.512217 948.408691,211.524902 C943.520972,209.537588 938.337918,208.543945 932.859375,208.543945 Z M1021.78516,85.2773438 L1097.03418,85.2773438 L1097.03418,291.849609 L1122.81543,291.849609 L1122.81543,336 L1021.78516,336 L1021.78516,291.849609 L1047.56641,291.849609 L1047.56641,129.427734 L1021.78516,129.427734 L1021.78516,85.2773438 Z M1174.19727,263.006836 L1174.68066,268.001953 C1175.86231,272.835962 1177.87645,277.079083 1180.72314,280.731445 C1183.56984,284.383807 1186.92674,287.4453 1190.79395,289.916016 C1194.66115,292.386731 1198.95798,294.23974 1203.68457,295.475098 C1208.41116,296.710455 1213.19138,297.328125 1218.02539,297.328125 C1222.8594,297.328125 1227.45164,297.032718 1231.80225,296.441895 C1236.15285,295.851071 1240.36912,295.045415 1244.45117,294.024902 C1248.53322,293.004389 1252.50779,291.822761 1256.375,290.47998 C1260.24221,289.1372 1264.16307,287.713875 1268.1377,286.209961 L1285.8623,319.242188 C1279.73923,323.001972 1274.12649,326.197741 1269.02393,328.82959 C1263.92136,331.461439 1258.79202,333.63671 1253.63574,335.355469 C1248.47947,337.074227 1243.00101,338.336422 1237.2002,339.14209 C1231.39939,339.947758 1224.63187,340.350586 1216.89746,340.350586 C1202.39544,340.350586 1189.50494,337.960473 1178.22559,333.180176 C1166.94623,328.399878 1157.46635,321.927775 1149.78564,313.763672 C1142.10494,305.599569 1136.25051,296.039117 1132.22217,285.082031 C1128.19383,274.124945 1126.17969,262.523499 1126.17969,250.277344 C1126.17969,238.031189 1128.30125,226.537163 1132.54443,215.794922 C1136.78762,205.052681 1142.77633,195.680216 1150.51074,187.677246 C1158.24516,179.674276 1167.48334,173.363304 1178.22559,168.744141 C1188.96783,164.124977 1200.89154,161.81543 1213.99707,161.81543 C1227.1026,161.81543 1238.73091,163.990701 1248.88232,168.341309 C1259.03374,172.691916 1267.60055,178.707481 1274.58301,186.388184 C1281.56546,194.068886 1286.9365,203.092233 1290.69629,213.458496 C1294.45607,223.824759 1296.49707,234.969667 1296.81934,246.893555 C1297.1416,249.579115 1297.32959,252.23778 1297.3833,254.869629 C1297.43701,257.501478 1297.35645,260.213853 1297.1416,263.006836 L1174.19727,263.006836 Z M1212.70801,202.098633 C1206.69235,202.098633 1201.56301,202.823723 1197.31982,204.273926 C1193.07664,205.724128 1189.5049,207.711413 1186.60449,210.23584 C1183.70409,212.760267 1181.39454,215.633773 1179.67578,218.856445 C1177.95702,222.079118 1176.61426,225.462873 1175.64746,229.007812 L1245.41797,229.007812 C1244.66601,225.35545 1243.5918,221.917985 1242.19531,218.695312 C1240.79882,215.47264 1238.86525,212.625989 1236.39453,210.155273 C1233.92382,207.684558 1230.78176,205.724128 1226.96826,204.273926 C1223.15477,202.823723 1218.4014,202.098633 1212.70801,202.098633 Z" id="mi" fill="#FFFFFF" sketch:type="MSShapeGroup"></path>
        </g>
    </g>
</svg>