<?xml version="1.0" encoding="UTF-8" standalone="no"?>
<svg width="200px" height="200px" viewBox="0 0 200 200" version="1.1" xmlns="http://www.w3.org/2000/svg" xmlns:xlink="http://www.w3.org/1999/xlink" xmlns:sketch="http://www.bohemiancoding.com/sketch/ns">
    <title>icon-ie</title>
    <description>Created with Sketch (http://www.bohemiancoding.com/sketch)</description>
    <defs></defs>
    <g id="Page-1" stroke="none" stroke-width="1" fill="none" fill-rule="evenodd" sketch:type="MSPage">
        <g id="icon-ie" sketch:type="MSArtboardGroup" fill="#FFFFFF">
            <path d="M90.7421875,68.1953125 C74.4125,74.0316406 63.1472656,85.9371094 53.1496094,99.7230469 C53.3285156,97.8984375 53.3773438,96.0496094 53.7078125,94.2527344 C56.3109375,80.1089844 64.2640625,69.9175781 76.8125,63.140625 C84.7222656,58.8683594 93.21875,56.7 102.138672,57.1765625 C105.828516,57.3738281 108.623828,56.259375 111.5625,54.5367187 C118.008594,50.7585937 124.83125,47.8171875 132.273047,46.7875 C135.237891,46.3773437 138.396875,46.4027344 141.332031,46.9535156 C146.938672,48.0054687 150.566016,51.6757812 151.363281,57.2921875 C151.892188,61.0164062 151.355078,64.8953125 151.236328,68.7035156 C151.220703,69.2007812 150.852734,69.6871094 150.647656,70.178125 C150.416797,70.1414062 150.185547,70.1042969 149.954297,70.0675781 C150.001563,69.1226562 150.065625,68.178125 150.091797,67.2328125 C150.138281,65.5519531 150.399219,63.8347656 150.154297,62.1953125 C149.069922,54.9378906 144.614063,51.3597656 137.233594,52.003125 C130.30625,52.6070312 124.019141,55.2886719 117.994922,58.625 C117.790625,58.7382812 117.6625,58.9902344 117.297656,59.4078125 C118.064453,59.7472656 118.672656,60.04375 119.300781,60.2902344 C128.874219,64.0449219 136.975391,69.7296875 142.5375,78.5328125 C147.544531,86.4582031 149.982031,95.0746094 148.845703,104.542969 C148.690234,105.841016 148.315625,106.294531 146.939844,106.291016 C127.9375,106.2375 108.934375,106.244922 89.9316406,106.239844 C86.3226563,106.238672 85.86875,106.775 86.4117188,110.364453 C88.0808594,121.407422 101.005859,126.844531 109.978906,120.134375 C111.883203,118.710156 113.299609,116.55625 114.703125,114.570312 C115.456641,113.503906 116.138281,112.870312 117.482031,112.875 C126.592969,112.905078 135.703906,112.878125 144.814844,112.900391 C146.73125,112.904687 146.999219,113.345703 146.248047,115.163281 C142.382422,124.514844 135.976172,131.641016 127.265234,136.728516 C118.667188,141.750391 109.350781,143.928906 99.4367188,143.725 C99.1765625,143.719531 98.9007813,143.776562 98.6582031,143.709375 C94.115625,142.450391 90.3117188,143.972266 86.4125,146.314453 C80.7550781,149.713281 74.5488281,152.032031 68.0152344,153.126563 C63.1675781,153.939062 58.30625,154.007422 53.8710938,151.157422 C51.0796875,149.363672 49.4359375,146.823828 48.5433594,143.729687 C47.4378906,139.895703 47.6246094,136.023828 48.2953125,132.139453 C49.7234375,123.86875 53.1707031,116.366016 57.225,109.137109 C62.7222656,99.3347656 69.4261719,90.3890625 77.2570313,82.3277344 C81.3265625,78.1390625 85.6226563,74.1707031 89.8113281,70.0980469 C90.2664063,69.6554687 90.6902344,69.1804687 91.1285156,68.7203125 C90.9996094,68.5453125 90.8707031,68.3703125 90.7421875,68.1953125 L90.7421875,68.1953125 Z M88.7363281,143.051953 C88.7085938,142.802734 88.6808594,142.553125 88.653125,142.303906 C82.8097656,140.633984 77.2164063,138.444141 72.1929688,134.975 C67.1265625,131.476172 62.9609375,127.089453 59.3371094,121.771094 C58.8375,122.526562 58.4378906,122.900781 58.3171875,123.349609 C57.0886719,127.915234 55.3015625,132.433594 54.8441406,137.080859 C54.0449219,145.209766 58.7230469,150.660937 67.0097656,150.396484 C71.71875,150.246484 76.0976563,148.853516 80.3632813,147.064063 C83.2136719,145.867969 85.9492188,144.398828 88.7363281,143.051953 L88.7363281,143.051953 Z M101.146484,92.9632812 C105.433984,92.9632812 109.721094,92.9769531 114.008594,92.9578125 C116.298828,92.9476562 116.455078,92.7238281 116.006641,90.4242187 C114.644922,83.4429688 108.332422,78.1382812 101.369922,78.1246094 C94.1890625,78.1105469 87.8792969,83.4160156 86.5195313,90.6113281 C86.1644531,92.4902344 86.5027344,92.9390625 88.4796875,92.9523437 C92.7015625,92.9816406 96.9242188,92.9613281 101.146484,92.9632812 L101.146484,92.9632812 Z" id="Fill-16" sketch:type="MSShapeGroup"></path>
        </g>
    </g>
</svg>