<?xml version="1.0" encoding="UTF-8" standalone="no"?>
<svg width="200px" height="200px" viewBox="0 0 200 200" version="1.1" xmlns="http://www.w3.org/2000/svg" xmlns:xlink="http://www.w3.org/1999/xlink" xmlns:sketch="http://www.bohemiancoding.com/sketch/ns">
    <title>icon-chrome</title>
    <description>Created with Sketch (http://www.bohemiancoding.com/sketch)</description>
    <defs></defs>
    <g id="Page-1" stroke="none" stroke-width="1" fill="none" fill-rule="evenodd" sketch:type="MSPage">
        <g id="icon-chrome" sketch:type="MSArtboardGroup" fill="#FFFFFF">
            <path d="M96.2092408,155.556249 C97.6421738,155.556249 98.5450845,155.610242 99.4390393,155.546432 C102.61266,155.322276 105.820476,155.28628 108.949318,154.773339 C143.434154,149.124445 164.122939,113.589998 152.232852,80.6047112 C151.700387,79.1280633 151.019744,78.6020331 149.446774,78.611032 C138.310605,78.6772971 127.173621,78.6445736 116.037452,78.6511183 C115.417057,78.6519364 114.796662,78.72311 113.785467,78.7861027 C114.441685,79.3988503 114.779564,79.7604449 115.162223,80.0647735 C125.089355,87.9437738 127.710971,101.315413 121.389782,112.303146 C115.790759,122.035933 110.098921,131.715544 104.447792,141.418061 C101.796051,145.9699 99.1426827,150.521738 96.2092408,155.556249 L96.2092408,155.556249 Z M149.791166,74.9492725 C149.131691,73.7049615 148.735192,72.9024177 148.291472,72.1268708 C136.556076,51.6076009 113.691838,40.7270376 90.498677,44.7749344 C77.2456747,47.0876677 66.3122329,53.5947354 57.4882964,63.776652 C56.3215958,65.123224 56.2727458,66.1188364 57.1878689,67.6707483 C62.8552819,77.2808218 68.4005699,86.962887 73.9922654,96.6171372 C74.2902504,97.1308961 74.6452269,97.6102953 75.0482394,98.2164982 C75.2574802,97.8459045 75.3633218,97.7436436 75.3698351,97.6356561 C76.063505,85.7030323 86.8235294,74.5246851 101.072257,74.8666457 C116.360676,75.2331489 131.664563,74.9492725 146.961938,74.9492725 L149.791166,74.9492725 L149.791166,74.9492725 Z M111.27702,122.100562 C110.382251,122.42207 110.02646,122.53742 109.68044,122.675677 C97.6902096,127.45658 85.1162223,123.267154 78.5825361,112.127257 C70.6574394,98.6157248 62.8715652,85.0223835 55.0205577,71.4666742 C54.615917,70.7672094 54.1640545,70.0939234 53.5933238,69.1842102 C53.0242215,70.0644723 52.6171382,70.6379516 52.2662324,71.2441544 C45.4777122,82.9837095 43.090576,95.5446245 45.2464889,108.971894 C48.953389,132.064049 67.3975168,150.80316 90.293507,154.748796 C91.6515367,154.982769 92.4152249,154.603177 93.0917973,153.371955 C94.9130877,150.05461 96.884999,146.819893 98.7901486,143.549179 C102.859353,136.565166 106.923672,129.578699 111.27702,122.100562 L111.27702,122.100562 Z M120.721352,99.8183134 C120.766131,88.459987 111.523713,79.0757057 100.181559,78.9619916 C88.8190515,78.8482774 79.3722776,88.2415577 79.3274985,99.6988726 C79.2827193,111.057199 88.5243232,120.44148 99.8672909,120.554376 C111.229798,120.668091 120.675758,111.27481 120.721352,99.8183134 L120.721352,99.8183134 Z" id="Fill-9" sketch:type="MSShapeGroup"></path>
        </g>
    </g>
</svg>