<?xml version="1.0" encoding="UTF-8" standalone="no"?>
<svg width="200px" height="200px" viewBox="0 0 200 200" version="1.1" xmlns="http://www.w3.org/2000/svg" xmlns:xlink="http://www.w3.org/1999/xlink" xmlns:sketch="http://www.bohemiancoding.com/sketch/ns">
    <title>icon-firefox</title>
    <description>Created with Sketch (http://www.bohemiancoding.com/sketch)</description>
    <defs></defs>
    <g id="Page-1" stroke="none" stroke-width="1" fill="none" fill-rule="evenodd" sketch:type="MSPage">
        <g id="icon-firefox" sketch:type="MSArtboardGroup" fill="#FFFFFF">
            <path d="M128.679366,108.618265 L128.115624,108.319399 C123.540443,115.069852 118.473403,121.137408 109.89108,122.739952 C103.580526,123.918224 91.6684898,120.051725 87.6914302,115.309336 C94.257876,115.650394 100.061336,113.9033 105.186586,109.78638 C106.311726,108.88236 108.015846,108.711636 109.435945,108.158051 C110.341918,107.804491 111.788192,107.533754 111.963605,106.92821 C112.199572,106.112092 111.731154,104.706838 111.06818,104.080979 C107.808789,101.00286 103.985264,100.192993 99.7183242,101.809992 C97.7782379,102.54524 95.855732,103.383235 93.8523565,103.882907 C89.3783598,104.998281 82.6103263,101.655676 80.669068,97.4949994 C79.8369327,95.7111826 79.8283379,93.9375234 81.1878829,92.3885017 C82.5318009,90.8570603 84.1515346,90.4101294 86.083026,91.3391518 C86.865155,91.7153707 87.7312789,91.9165677 89.0880891,92.3767815 C88.8161801,89.9663239 88.7458589,87.971934 88.3188524,86.0568509 C88.0430366,84.8188055 88.33487,84.0175334 89.2576416,83.3756563 C91.4438524,81.8559351 93.7507813,80.4959995 95.8373703,78.8536067 C97.0086105,77.9316165 98.1751625,76.7189649 98.744765,75.382079 C99.6249531,73.3161958 98.79985,72.312164 96.5495687,72.2226997 C94.3395268,72.1347981 92.1216715,72.2332479 89.9128016,72.13011 C85.9134736,71.9437586 83.485045,68.1514877 84.9625734,64.5037661 C86.0439586,61.8331198 87.8000375,59.7109795 90.1417365,58.049053 C90.5550694,57.755657 90.9074572,57.3763127 91.6184836,56.7414677 C90.6382829,56.669193 90.1823665,56.5465214 89.7592668,56.6176241 C85.2696431,57.3720153 81.0738061,58.794068 77.5702432,61.8780473 C77.0678366,62.3206807 76.2364827,62.5851669 75.5535848,62.593371 C72.3246656,62.6312664 69.0887142,62.426944 65.8668271,62.5671959 C64.2842074,62.6363452 62.9633392,62.4527285 62.1272972,61.0939649 C60.5278785,58.4936398 59.0394112,55.8249469 57.3313852,52.8859076 C56.4972965,54.0969965 55.3291818,55.452244 54.543146,57.0008751 C52.4932804,61.0408332 51.9982967,65.4155988 52.127219,69.8946743 C52.1506595,70.7100106 52.2084792,71.7023222 51.8049131,72.3231029 C48.6967121,77.1026066 47.1871484,82.4630423 45.9080823,87.9195837 C45.6498469,89.0208932 45.4107545,90.1265002 45.1626766,91.2301538 C45.329885,91.3125859 45.4970934,91.3946275 45.6646925,91.4770596 C46.5804319,90.2054163 47.4965621,88.9341636 48.6373297,87.3503719 C48.0028754,90.6285161 47.3582635,93.5179397 46.9035192,96.436664 C46.4550256,99.3128047 46.1991343,102.219027 45.8588574,105.111576 C46.1018565,105.167833 46.3448556,105.2237 46.5878547,105.279566 C47.3551381,103.839152 48.1228122,102.398737 49.0014377,100.749312 C49.5936992,104.431023 49.9441336,107.846293 50.7106357,111.165068 C54.2997562,126.700994 63.3247125,137.92349 77.8816102,144.488374 C88.6716308,149.354216 99.9597606,150.041021 111.481904,147.747765 C125.519206,144.953666 136.940164,138.111014 144.703635,125.843855 C152.844887,112.978966 155.42685,98.6814758 155.209245,83.7104638 C155.20612,83.5084854 155.050241,83.3092418 154.965464,83.1084354 C154.825994,83.1092168 154.686523,83.1096075 154.546662,83.1103888 C154.272018,84.4226622 153.996984,85.7349356 153.680538,87.247234 C153.253532,84.4785286 152.873015,81.9094574 152.458901,79.3458557 C151.564649,73.8123515 150.393799,68.3530754 147.706745,63.3590918 C147.014861,62.0726028 146.126078,60.8919865 145.327932,59.6629266 L144.727857,59.9957807 C145.065399,61.1529566 145.445524,62.2995843 145.727591,63.4700431 C145.996765,64.5869796 146.163192,65.7285286 146.374937,66.8591386 C142.953025,61.0560695 138.809929,56.2132767 132.329041,54.0255032 C126.28141,51.9838417 120.126344,50.3402769 113.591543,51.3868921 C118.17024,53.0085792 123.089996,53.6231091 127.586261,56.4816696 C123.986201,57.0270503 120.783067,57.5122672 117.579932,57.9974841 C117.531098,58.2244656 117.482654,58.4514471 117.434211,58.6784286 C128.938774,61.4916708 137.328885,67.7240905 140.860967,79.4462589 C139.531895,78.232826 138.279785,77.0893237 136.803429,75.7414989 C137.027285,79.6396425 137.416786,83.0435836 137.363655,86.4404926 C137.310133,89.8741249 136.817883,93.3011158 136.499484,96.9418052 C135.021956,95.3744218 133.921818,94.2078697 132.822072,93.0413177 C132.638455,93.1272659 132.454447,93.2136048 132.270831,93.2995531 C132.365374,101.352122 132.962323,109.521503 127.050647,116.182492 C127.593684,113.661083 128.13633,111.139674 128.679366,108.618265 L128.679366,108.618265 Z" id="Fill-19" sketch:type="MSShapeGroup"></path>
        </g>
    </g>
</svg>