<?xml version="1.0" encoding="UTF-8" standalone="no"?>
<svg width="200px" height="200px" viewBox="0 0 200 200" version="1.1" xmlns="http://www.w3.org/2000/svg" xmlns:xlink="http://www.w3.org/1999/xlink" xmlns:sketch="http://www.bohemiancoding.com/sketch/ns">
    <title>icon-safari</title>
    <description>Created with Sketch (http://www.bohemiancoding.com/sketch)</description>
    <defs></defs>
    <g id="Page-1" stroke="none" stroke-width="1" fill="none" fill-rule="evenodd" sketch:type="MSPage">
        <g id="icon-safari" sketch:type="MSArtboardGroup" fill="#FFFFFF">
            <g id="Group" sketch:type="MSLayerGroup" transform="translate(47.000000, 43.000000)">
                <path d="M106.582422,60.6570313 C106.194922,88.6648438 85.4652344,110.614453 59.1207031,113.520703 C36.5824219,116.007031 15.5765625,104.738281 5.4484375,84.2320313 C-2.35,68.4425781 -2.15507813,52.346875 5.79453125,36.5046875 C10.8628906,26.4042969 18.6128906,18.921875 28.5109375,13.6082031 C29.6253906,13.0097656 30.0523438,12.3570313 30.0628906,11.0441406 C30.1058594,5.69882813 33.5070313,1.4234375 38.4949219,0.199609375 C43.4585938,-1.01835937 48.4011719,1.09804688 50.9296875,5.69257813 C51.7277344,7.14296875 52.7488281,7.746875 54.3425781,7.75898438 C69.3628906,7.87265625 81.9078125,13.7464844 92.1261719,24.5300781 C100.402734,33.2648438 105.065625,43.7664063 106.126953,55.8066406 C106.269531,57.4242188 106.430078,59.0402344 106.582422,60.6570313 L106.582422,60.6570313 Z M87.3601563,53.8929688 C87.9820312,53.4816406 88.3695313,53.1789063 88.796875,52.9507813 C91.3960938,51.5632813 91.4472656,51.553125 90.5191406,48.7679687 C87.3191406,39.1667969 81.3378906,31.7988281 72.5621094,26.7578125 C65.9695313,22.9707031 58.8308594,21.1777344 51.2402344,21.6511719 C47.34375,21.8941406 47.359375,22.1058594 47.0898438,26.0667969 C47.0789062,26.2285156 46.9390625,26.38125 46.75625,26.7414063 C46.3675781,26.040625 46.0464844,25.5023437 45.7636719,24.9449219 C44.4902344,22.4324219 44.4800781,22.4707031 41.7089844,23.2992188 C34.5226562,25.4472656 28.4832031,29.4160156 23.6203125,35.0480469 C16.4882812,43.3089844 13.2003906,52.9460938 14.1199219,63.8835937 C14.3847656,67.0351562 14.5273437,67.0171875 17.7347656,67.1949219 C18.0773438,67.2136719 18.4128906,67.3546875 19.2121094,67.5539063 C18.1234375,68.1132812 17.4734375,68.5335937 16.7648438,68.7929688 C15.4074219,69.2902344 15.0554687,70.0871094 15.4394531,71.5144531 C20.28125,89.5167969 39.3671875,102.169922 57.7722656,99.5683594 C59.0582031,99.3867188 59.5902344,98.7839844 59.6234375,97.540625 C59.6457031,96.7148438 59.7835937,95.8921875 59.8699219,95.0683594 C60.4839844,95.4710937 60.7132812,95.853125 60.9132813,96.2496094 C62.2421875,98.8855469 62.225,98.8371094 65.0390625,97.975 C72.0800781,95.8179688 77.9605469,91.8617187 82.75625,86.3496094 C89.7472656,78.3152344 92.9035156,68.8648438 92.3058594,58.2679687 C92.1125,54.8347656 92.4617188,53.9972656 88.3105469,54.2039063 C88.0882813,54.2148438 87.8574219,54.0613281 87.3601563,53.8929688 L87.3601563,53.8929688 Z M46.8746094,7.6625 C45.4417969,4.5453125 42.0636719,3.2671875 38.8738281,4.39960938 C36.0527344,5.40117188 34.1511719,8.18476563 34.7332031,10.5679688 C38.728125,9.61210938 42.721875,8.65625 46.8746094,7.6625 L46.8746094,7.6625 Z" id="Fill-3" sketch:type="MSShapeGroup"></path>
                <path d="M76.5476563,35.7421875 C74.7890625,38.2925781 73.0351563,40.8460937 71.2707031,43.3921875 C69.3433594,46.1734375 67.3601563,48.9175781 65.5066406,51.746875 C65.0660156,52.4199219 64.6117188,53.6945312 64.9289063,54.1144531 C65.4484375,54.8019531 66.5820313,55.3359375 67.4792969,55.3726562 C70.9164063,55.5128906 74.3628906,55.4292969 77.9710938,55.8414062 C76.0578125,56.7769531 74.1492188,57.7214844 72.2296875,58.6433594 C71.4089844,59.0375 70.5972656,59.5125 69.7265625,59.7292969 C66.6871094,60.4859375 65.9984375,62.8847656 65.70625,65.4753906 C65.6332031,66.1253906 66.0398438,67.0167969 66.5226563,67.5023437 C67.4753906,68.4613281 68.6351563,69.2144531 69.7097656,70.0523437 C69.4933594,70.3617187 69.2773438,70.6710937 69.0613281,70.9804687 C67.8644531,70.5332031 66.6460938,70.1347656 65.4765625,69.6246094 C64.3945313,69.1523437 63.4746094,69.1742187 62.6601563,70.1070312 C62.4480469,70.35 62.2109375,70.6285156 61.9257813,70.7417969 C58.4722656,72.1121094 58.1589844,74.9042969 58.4242188,78.0851562 C58.5878906,80.0433594 58.4546875,82.0265625 58.4546875,83.9984375 C58.2667969,84.0277344 58.0785156,84.0566406 57.890625,84.0859375 C56.6375,81.4703125 55.3054688,78.8886719 54.1613281,76.2261719 C53.5097656,74.7097656 52.459375,74.21875 50.9714844,73.5738281 C47.3679688,72.0121094 45.209375,73.7539062 42.7839844,75.9113281 C38.6628906,79.5777344 34.3515625,83.0304687 29.8230469,86.3394531 C31.6890625,83.6703125 33.5488281,80.996875 35.4234375,78.3335937 C37.4085938,75.5136719 39.4367188,72.7234375 41.3917969,69.8828125 C42.7414063,67.9214844 41.8546875,66.109375 39.4429688,66.0226562 C36.3878906,65.9128906 33.3261719,65.9839844 30.2675781,65.965625 C29.8878906,65.9632812 29.5085938,65.8894531 28.4753906,65.7792969 C29.4527344,65.1984375 29.934375,64.8664062 30.4539063,64.6113281 C32.965625,63.3796875 35.4714844,62.1332031 38.0132813,60.9648437 C39.3121094,60.3675781 40.1316406,59.4988281 40.2492188,58.0433594 C40.2542969,57.9792969 40.2726563,57.9144531 40.296875,57.8542969 C41.2761719,55.3914062 42.3394531,52.9175781 38.6863281,50.9394531 C39.5480469,50.85 39.8230469,50.7300781 39.9835938,50.8183594 C42.3367188,52.1167969 44.346875,51.5496094 46.0160156,49.628125 C46.6523438,48.8957031 47.3625,48.0066406 47.5039063,47.1046875 C48.0257813,43.778125 48.3242188,40.4164062 49.1183594,36.9523437 C50.33125,39.1941406 51.7371094,41.3558594 52.7054688,43.6984375 C53.8125,46.3769531 55.4367188,48.0757812 58.36875,48.6597656 C59.5789063,48.9007812 60.396875,48.9222656 61.3578125,48.0804687 C65.9554688,44.0523437 70.6121094,40.0910156 75.2515625,36.1105469 C75.5363281,35.8664062 75.8554688,35.6617187 76.1585938,35.4386719 L76.5476563,35.7421875 L76.5476563,35.7421875 Z M57.8707031,51.1148437 C54.0960938,48.4640625 48.4300781,49.7445312 44.8132813,53.5867187 C41.8433594,56.7417969 41.1652344,63.0992187 44.1136719,66.2429687 C47.6714844,60.2492187 52.2527344,55.2414062 57.8707031,51.1148437 L57.8707031,51.1148437 Z M49.0945313,70.49375 C53.2058594,72.9261719 59.3058594,71.2636719 62.0503906,67.4148437 C64.8195313,63.53125 65.1539063,58.196875 62.4679688,55.9601562 C59.0949219,61.6664062 54.8289063,66.5804687 49.0945313,70.49375 L49.0945313,70.49375 Z" id="Fill-6" sketch:type="MSShapeGroup"></path>
            </g>
        </g>
    </g>
</svg>