<?xml version="1.0" encoding="UTF-8" standalone="no"?>
<svg width="800px" height="168px" viewBox="0 0 800 168" version="1.1" xmlns="http://www.w3.org/2000/svg" xmlns:xlink="http://www.w3.org/1999/xlink" xmlns:sketch="http://www.bohemiancoding.com/sketch/ns">
    <title>min-logo-800w</title>
    <description>Created with Sketch (http://www.bohemiancoding.com/sketch)</description>
    <defs></defs>
    <g id="Page-1" stroke="none" stroke-width="1" fill="none" fill-rule="evenodd" sketch:type="MSPage">
        <g id="min-logo-800w" sketch:type="MSArtboardGroup" fill="#FFFFFF">
            <g id="Logo" sketch:type="MSLayerGroup" transform="translate(-1.000000, 1.000000)">
                <path d="M512.17581,164.34127 L467.598316,164.34127 L467.598316,158.397259 C465.173166,159.954032 462.95592,161.280807 460.94651,162.377624 C458.9371,163.47444 456.927721,164.358957 454.918311,165.0312 C452.908901,165.703442 450.830233,166.198772 448.682243,166.517202 C446.534253,166.835633 444.178429,166.994846 441.614699,166.994846 C435.17073,166.994846 429.402424,166.092639 424.30961,164.288198 C419.216795,162.483758 414.92088,160.007111 411.421736,156.858185 C409.158269,154.821262 407.235489,152.547489 405.653373,150.036835 L405.653373,164.34127 L356.492369,164.34127 L356.492369,101.080016 C356.492369,94.9236888 354.898723,90.0942287 351.711383,86.5914907 C348.524043,83.0887528 344.297417,81.3374101 339.031378,81.3374101 C335.428298,81.3374101 331.790628,82.1511653 328.118259,83.7787001 C324.445889,85.4062349 320.877508,88.4489717 317.413008,92.9070018 L317.413008,135.258076 L334.873999,135.258076 L334.873999,164.34127 L268.640971,164.34127 L208.540077,164.34127 L161.8735,164.34127 L161.8735,101.292302 C161.8735,95.0652125 160.297177,90.1826814 157.144482,86.6445623 C153.991787,83.1064431 149.609261,81.3374101 143.996772,81.3374101 C140.116532,81.3374101 136.46154,82.2749976 133.031685,84.1502007 C129.601831,86.0254039 126.18935,89.2627343 122.79414,93.8622892 C122.86343,94.6406754 122.898074,95.4367403 122.898074,96.2505077 L122.898074,98.7448692 L122.898074,135.258076 L138.488245,135.258076 L138.488245,164.34127 L89.3272409,164.34127 L89.3272409,101.080016 C89.3272409,98.1079961 88.8768627,95.4190658 87.9760928,93.0131448 C87.0753229,90.6072238 85.8281218,88.5551455 84.2344519,86.8568483 C82.6407821,85.1585512 80.7526581,83.8317764 78.5700234,82.8764842 C76.3873886,81.9211921 73.9795975,81.4081725 71.3465778,81.3374101 C67.8820781,81.2666477 64.2963748,82.0450222 60.5893602,83.672557 C56.8823456,85.3000918 53.3312868,88.307448 49.9360771,92.6947157 L49.9360771,135.258076 L67.189199,135.258076 L67.189199,164.34127 L0.255400865,164.34127 L0.255400865,135.258076 L16.2613091,135.258076 L16.2613091,83.460271 L0.463269803,83.460271 L0.463269803,54.3770771 L49.7282082,54.3770771 L49.7282082,63.929951 C54.1627677,60.3210695 59.1515723,57.455236 64.6947717,55.3323645 C70.2379711,53.209493 75.9543098,52.1480732 81.8439592,52.1480732 C90.0201783,52.1480732 97.0356848,53.6163706 102.890689,56.5530095 C108.745694,59.4896484 113.336087,63.965302 116.662006,69.9801045 C118.948576,67.3618963 121.52959,64.9737017 124.405124,62.8154491 C127.280659,60.6571964 130.346695,58.7820214 133.603325,57.1898678 C136.859954,55.5977142 140.272435,54.359391 143.84087,53.4748613 C147.409305,52.5903315 151.064297,52.1480732 154.805956,52.1480732 C167.971055,52.1480732 178.087242,55.8630426 185.154821,63.2930928 C192.222401,70.7231429 195.756137,81.5850057 195.756137,95.879007 L195.756137,135.258076 L208.540077,135.258076 L208.540077,135.258076 L222.259427,135.258076 L222.259427,83.460271 L206.04565,83.460271 L206.04565,54.3770771 L254.375178,54.3770771 L254.375178,135.258076 L268.640971,135.258076 L283.73824,135.258076 L283.73824,83.460271 L268.14807,83.460271 L268.14807,54.3770771 L317.205139,54.3770771 L317.205139,64.0360941 C321.708989,60.4272125 326.74976,57.5790694 332.327605,55.4915791 C337.905449,53.4040888 343.777688,52.3603593 349.944497,52.3603593 C362.901726,52.3603593 372.879335,56.0576383 379.877624,63.4523073 C386.875913,70.8469763 390.375006,81.6557681 390.375006,95.879007 L390.375006,135.258076 L400.717582,135.258076 L400.717582,135.258076 C400.612916,134.11129 400.560584,132.943717 400.560584,131.755356 C400.560584,126.660464 401.513307,121.954836 403.418781,117.638331 C405.324256,113.321826 408.078492,109.624546 411.681572,106.546383 C415.284651,103.468219 419.701822,101.062334 424.933217,99.3286559 C430.164611,97.5949775 436.140783,96.7281514 442.861913,96.7281514 C447.781502,96.7281514 452.267962,96.9935063 456.321426,97.5242242 C460.374891,98.054942 464.133817,98.7094843 467.598316,99.4878705 L467.598316,96.0912931 C467.598316,93.3315602 467.078649,90.9433656 466.039299,88.9266377 C464.999949,86.9099098 463.544881,85.2470187 461.674051,83.9379147 C459.803222,82.6288106 457.551331,81.6735327 454.918311,81.0720525 C452.285291,80.4705722 449.4098,80.1698366 446.29175,80.1698366 C439.778491,80.1698366 434.04483,80.8243788 429.090595,82.1334829 C424.136361,83.442587 419.372745,85.3354523 414.799606,87.8121357 L404.821897,67.2203854 C411.889476,62.2670186 419.286072,58.4812879 427.011906,55.8630797 C434.73774,53.2448716 442.931159,51.9357871 451.592408,51.9357871 C458.313537,51.9357871 464.532221,52.6964713 470.248645,54.2178626 C475.96507,55.7392538 480.867263,58.2159 484.955373,61.6478756 C489.043482,65.0798511 492.248096,69.5555047 494.569311,75.0749705 C496.890526,80.5944364 498.051116,87.3167619 498.051116,95.2421487 L498.051116,135.258076 L511.853613,135.258076 L511.853613,28.2658885 L496.783115,28.2658885 L496.783115,-0.817305308 L543.761495,-0.817305308 L543.761495,56.8183671 C547.503155,54.9785452 551.348692,53.5633188 555.298221,52.5726454 C559.247751,51.581972 563.301155,51.0866428 567.458554,51.0866428 C575.426903,51.0866428 582.806177,52.6080112 589.596596,55.6507937 C596.387015,58.6935761 602.241932,62.8331134 607.161521,68.0695297 C612.081111,73.305946 615.94397,79.4268003 618.750215,86.4322762 C621.556459,93.437752 622.959561,100.867691 622.959561,108.722315 C622.959561,116.647702 621.591104,124.113021 618.854149,131.118497 C616.117194,138.123973 612.28898,144.227137 607.36939,149.428172 C602.449801,154.629207 596.594884,158.733364 589.804465,161.740765 C583.014046,164.748167 575.565483,166.251845 567.458554,166.251845 C563.093285,166.251845 558.935947,165.827277 554.986418,164.978128 C551.036888,164.12898 547.295285,162.926037 543.761495,161.369265 L543.761495,164.34127 L512.17581,164.34127 L512.17581,164.34127 Z M220.596475,18.9253007 C220.596475,16.3070926 221.064176,13.8481367 221.999591,11.5483592 C222.935006,9.24858179 224.234174,7.24957446 225.897133,5.55127728 C227.560093,3.8529801 229.517506,2.508515 231.769431,1.51784164 C234.021356,0.527168286 236.463791,0.0318390377 239.096811,0.0318390377 C241.591251,0.0318390377 243.947075,0.527168286 246.164355,1.51784164 C248.381635,2.508515 250.321725,3.8529801 251.984685,5.55127728 C253.647645,7.24957446 254.964135,9.24858179 255.934195,11.5483592 C256.904255,13.8481367 257.389278,16.3070926 257.389278,18.9253007 C257.389278,21.5435089 256.904255,24.0024648 255.934195,26.3022422 C254.964135,28.6020197 253.647645,30.601027 251.984685,32.2993242 C250.321725,33.9976213 248.381635,35.3420864 246.164355,36.3327598 C243.947075,37.3234332 241.591251,37.8187624 239.096811,37.8187624 C236.463791,37.8187624 234.021356,37.3234332 231.769431,36.3327598 C229.517506,35.3420864 227.560093,33.9976213 225.897133,32.2993242 C224.234174,30.601027 222.935006,28.6020197 221.999591,26.3022422 C221.064176,24.0024648 220.596475,21.5435089 220.596475,18.9253007 Z M443.901257,141.945088 C448.820847,141.945088 453.289984,141.131333 457.308804,139.503798 C461.327623,137.876263 464.757426,135.894946 467.598316,133.559787 L467.598316,119.548906 L442.654044,119.548906 C441.060374,119.548906 439.501372,119.79657 437.976992,120.291907 C436.452613,120.787244 435.084156,121.494857 433.871581,122.414768 C432.659006,123.334679 431.688961,124.46686 430.961416,125.811345 C430.233871,127.15583 429.870104,128.71258 429.870104,130.481639 C429.870104,133.736709 431.030694,136.46102 433.351909,138.654653 C435.673123,140.848287 439.189538,141.945088 443.901257,141.945088 Z M565.27593,80.3821227 C560.702791,80.3821227 556.59742,81.4435425 552.959696,83.566414 C549.321971,85.6892855 546.255935,88.7320223 543.761495,92.6947157 L543.761495,125.599059 C545.978775,128.995653 548.940878,131.737655 552.647892,133.825145 C556.354907,135.912635 560.494922,136.956365 565.068061,136.956365 C568.601851,136.956365 571.962365,136.301822 575.149705,134.992718 C578.337045,133.683614 581.125925,131.808439 583.51643,129.367137 C585.906934,126.925835 587.795058,123.98924 589.180858,120.557265 C590.566658,117.125289 591.259548,113.251107 591.259548,108.934601 C591.259548,104.547334 590.566658,100.5847 589.180858,97.0465805 C587.795058,93.5084614 585.924257,90.5011052 583.568397,88.0244218 C581.212537,85.5477384 578.458301,83.6548731 575.305607,82.345769 C572.152912,81.0366649 568.80972,80.3821227 565.27593,80.3821227 Z M622.635159,-0.817305308 L671.172556,-0.817305308 L671.172556,135.258076 L687.802071,135.258076 L687.802071,164.34127 L622.635159,164.34127 L622.635159,135.258076 L639.264674,135.258076 L639.264674,28.2658885 L622.635159,28.2658885 L622.635159,-0.817305308 Z M720.944569,116.258471 L721.256372,119.548906 C722.018562,122.733213 723.31773,125.528285 725.153915,127.934206 C726.9901,130.340127 729.155379,132.356825 731.649819,133.984359 C734.144259,135.611894 736.915817,136.832527 739.964577,137.646294 C743.013336,138.460062 746.096695,138.866939 749.214744,138.866939 C752.332794,138.866939 755.294897,138.672346 758.101142,138.283153 C760.907386,137.89396 763.626978,137.36325 766.259997,136.691007 C768.893017,136.018764 771.456708,135.24039 773.951148,134.35586 C776.445588,133.47133 778.974635,132.533743 781.538364,131.54307 L792.971156,153.302393 C789.021626,155.779077 785.401279,157.884226 782.110004,159.617904 C778.818729,161.351583 775.510182,162.7845 772.184262,163.916698 C768.858342,165.048896 765.324606,165.880341 761.582946,166.411059 C757.841287,166.941777 753.476083,167.207132 748.487203,167.207132 C739.133054,167.207132 730.81838,165.632693 723.542931,162.483767 C716.267481,159.334841 710.152731,155.071471 705.198497,149.69353 C700.244262,144.315589 696.468014,138.017831 693.86964,130.800068 C691.271265,123.582305 689.972097,115.940082 689.972097,107.873171 C689.972097,99.8062593 691.340554,92.2347979 694.077509,85.1585596 C696.814463,78.0823214 700.677322,71.9083961 705.666202,66.6365986 C710.655081,61.3648011 716.613931,57.2075735 723.542931,54.164791 C730.47193,51.1220086 738.163004,49.6006402 746.616383,49.6006402 C755.069762,49.6006402 762.570291,51.0335569 769.118195,53.8994334 C775.6661,56.7653099 781.191894,60.7279439 785.695743,65.7874543 C790.199593,70.8469646 793.66404,76.7909156 796.08919,83.6194855 C798.51434,90.4480554 799.83083,97.7895425 800.0387,105.644167 C800.24657,107.413227 800.367826,109.164569 800.402471,110.898248 C800.437116,112.631926 800.385149,114.418649 800.246569,116.258471 L720.944569,116.258471 Z M745.784907,76.136401 C741.904667,76.136401 738.59612,76.6140399 735.859165,77.5693321 C733.12221,78.5246242 730.818353,79.8337087 728.947523,81.4966247 C727.076693,83.1595406 725.586981,85.052406 724.478341,87.1752775 C723.369701,89.2981489 722.503589,91.5271306 721.879979,93.8622892 L766.883604,93.8622892 C766.398574,91.4563682 765.705685,89.1920059 764.804915,87.0691344 C763.904145,84.9462629 762.656944,83.0710879 761.063274,81.4435531 C759.469604,79.8160183 757.442902,78.5246242 754.983107,77.5693321 C752.523313,76.6140399 749.457277,76.136401 745.784907,76.136401 Z" id="mi" sketch:type="MSShapeGroup"></path>
            </g>
        </g>
    </g>
</svg>