<?xml version="1.0" encoding="UTF-8" standalone="no"?>
<svg width="400px" height="84px" viewBox="0 0 400 84" version="1.1" xmlns="http://www.w3.org/2000/svg" xmlns:xlink="http://www.w3.org/1999/xlink" xmlns:sketch="http://www.bohemiancoding.com/sketch/ns">
    <title>min-logo-400w</title>
    <description>Created with Sketch (http://www.bohemiancoding.com/sketch)</description>
    <defs></defs>
    <g id="Page-1" stroke="none" stroke-width="1" fill="none" fill-rule="evenodd" sketch:type="MSPage">
        <g id="min-logo-400w" sketch:type="MSArtboardGroup" fill="#FFFFFF">
            <g id="Logo" sketch:type="MSLayerGroup" transform="translate(0.000000, 1.000000)">
                <path d="M255.268819,81.6706349 L233.007898,81.6706349 L233.007898,78.6986297 C231.796837,79.4770159 230.689598,80.1404033 229.686147,80.6888118 C228.682697,81.2372202 227.679261,81.6794785 226.675811,82.0155998 C225.67236,82.3517211 224.634323,82.5993858 223.561669,82.7586011 C222.489015,82.9178165 221.312574,82.997423 220.032309,82.997423 C216.814347,82.997423 213.933795,82.5463195 211.390567,81.6440992 C208.847338,80.7418788 206.702063,79.5035557 204.954674,77.9290926 C203.824354,76.9106312 202.864164,75.7737446 202.074094,74.5184177 L202.074094,81.6706349 L177.524279,81.6706349 L177.524279,50.0400081 C177.524279,46.9618444 176.728451,44.5471143 175.136771,42.7957454 C173.54509,41.0443764 171.434416,40.168705 168.804683,40.168705 C167.005392,40.168705 165.188828,40.5755826 163.354936,41.38935 C161.521043,42.2031174 159.73908,43.7244858 158.008993,45.9535009 L158.008993,67.129038 L166.728589,67.129038 L166.728589,81.6706349 L133.653419,81.6706349 L133.653419,81.6706349 L103.640488,81.6706349 L80.3363298,81.6706349 L80.3363298,50.1461511 C80.3363298,47.0326063 79.5491519,44.5913407 77.9747726,42.8222811 C76.4003932,41.0532216 74.2118657,40.168705 71.4091244,40.168705 C69.4714268,40.168705 67.6462122,40.6374988 65.9334258,41.5751004 C64.2206395,42.5127019 62.5165292,44.1313672 60.8210437,46.4311446 C60.8556454,46.8203377 60.8729461,47.2183701 60.8729461,47.6252538 L60.8729461,48.8724346 L60.8729461,67.129038 L68.6582995,67.129038 L68.6582995,81.6706349 L44.1084849,81.6706349 L44.1084849,50.0400081 C44.1084849,48.553998 43.8835769,47.2095329 43.4337542,46.0065724 C42.9839315,44.8036119 42.3611095,43.7775728 41.5652694,42.9284242 C40.7694293,42.0792756 39.8265459,41.4158882 38.7365909,40.9382421 C37.646636,40.460596 36.4442434,40.2040862 35.1293772,40.168705 C33.39929,40.1333239 31.6086766,40.5225111 29.7574833,41.3362785 C27.9062899,42.1500459 26.1329772,43.653724 24.4374917,45.8473579 L24.4374917,67.129038 L33.0532829,67.129038 L33.0532829,81.6706349 L-0.371834774,81.6706349 L-0.371834774,67.129038 L7.62112815,67.129038 L7.62112815,41.2301355 L-0.268030061,41.2301355 L-0.268030061,26.6885386 L24.333687,26.6885386 L24.333687,31.4649755 C26.5481986,29.6605348 29.0394868,28.227618 31.8076263,27.1661823 C34.5757659,26.1047465 37.4303669,25.5740366 40.3715152,25.5740366 C44.454521,25.5740366 47.957895,26.3081853 50.8817424,27.7765048 C53.8055898,29.2448242 56.0979209,31.482651 57.7588047,34.4900522 C58.9006622,33.1809482 60.1895578,31.9868509 61.6255302,30.9077245 C63.0615026,29.8285982 64.5926068,28.8910107 66.2188888,28.0949339 C67.8451708,27.2988571 69.5492811,26.6796955 71.3312709,26.2374306 C73.1132607,25.7951657 74.9384754,25.5740366 76.8069695,25.5740366 C83.3813009,25.5740366 88.4330798,27.4315213 91.9624577,31.1465464 C95.4918356,34.8615715 97.256498,40.2925029 97.256498,47.4395035 L97.256498,67.129038 L103.640488,67.129038 L103.640488,67.129038 L110.491599,67.129038 L110.491599,41.2301355 L102.394831,41.2301355 L102.394831,26.6885386 L126.529427,26.6885386 L126.529427,67.129038 L133.653419,67.129038 L141.192629,67.129038 L141.192629,41.2301355 L133.407276,41.2301355 L133.407276,26.6885386 L157.905188,26.6885386 L157.905188,31.518047 C160.154302,29.7136063 162.671541,28.2895347 165.456981,27.2457895 C168.242421,26.2020444 171.174875,25.6801797 174.254431,25.6801797 C180.724957,25.6801797 185.707533,27.5288192 189.202309,31.2261537 C192.697085,34.9234882 194.444447,40.3278841 194.444447,47.4395035 L194.444447,67.129038 L199.609279,67.129038 L199.609279,67.129038 C199.557012,66.5556448 199.530878,65.9718584 199.530878,65.3776778 C199.530878,62.830232 200.006645,60.4774181 200.958193,58.3191654 C201.909741,56.1609128 203.28514,54.3122732 205.08443,52.7731914 C206.883721,51.2341096 209.089549,50.0311671 211.701981,49.164328 C214.314412,48.2974888 217.298768,47.8640757 220.655137,47.8640757 C223.111861,47.8640757 225.35229,47.9967532 227.376493,48.2621121 C229.400695,48.527471 231.277811,48.8547421 233.007898,49.2439352 L233.007898,47.5456465 C233.007898,46.1657801 232.748389,44.9716828 232.229363,43.9633188 C231.710337,42.9549549 230.983711,42.1235094 230.049464,41.4689573 C229.115217,40.8144053 227.990677,40.3367664 226.675811,40.0360262 C225.360944,39.7352861 223.924994,39.5849183 222.367915,39.5849183 C219.115351,39.5849183 216.2521,39.9121894 213.778075,40.5667415 C211.30405,41.2212935 208.925216,42.1677262 206.641501,43.4060679 L201.658875,33.1101927 C205.188253,30.6335093 208.881933,28.7406439 212.740028,27.4315399 C216.598122,26.1224358 220.689717,25.4678936 225.014935,25.4678936 C228.371304,25.4678936 231.476764,25.8482357 234.331408,26.6089313 C237.186052,27.3696269 239.634089,28.60795 241.675592,30.3239378 C243.717095,32.0399256 245.317401,34.2777524 246.47656,37.0374853 C247.635718,39.7972182 248.215289,43.1583809 248.215289,47.1210744 L248.215289,67.129038 L255.107922,67.129038 L255.107922,13.6329443 L247.58208,13.6329443 L247.58208,-0.908652654 L271.041945,-0.908652654 L271.041945,27.9091836 C272.910439,26.9892726 274.830807,26.2816594 276.803107,25.7863227 C278.775406,25.290986 280.799578,25.0433214 282.875682,25.0433214 C286.854883,25.0433214 290.539914,25.8040056 293.930884,27.3253968 C297.321855,28.8467881 300.245659,30.9165567 302.702383,33.5347648 C305.159107,36.152973 307.088125,39.2134001 308.489495,42.7161381 C309.890866,46.218876 310.591541,49.9338454 310.591541,53.8611576 C310.591541,57.823851 309.908167,61.5565107 308.541398,65.0592487 C307.174629,68.5619866 305.262911,71.6135686 302.806187,74.2140861 C300.349464,76.8146037 297.42566,78.866682 294.034689,80.3703826 C290.643718,81.8740833 286.924087,82.6259223 282.875682,82.6259223 C280.695773,82.6259223 278.619699,82.4136383 276.6474,81.9890641 C274.6751,81.5644898 272.806634,80.9630185 271.041945,80.1846323 L271.041945,81.6706349 L255.268819,81.6706349 L255.268819,81.6706349 Z M109.661161,8.96265036 C109.661161,7.65354628 109.89472,6.42406833 110.361843,5.27417961 C110.828967,4.12429089 111.47774,3.12478723 112.308181,2.27563864 C113.138623,1.42649005 114.116108,0.754257499 115.240665,0.258920821 C116.365221,-0.236415857 117.584914,-0.484080481 118.899781,-0.484080481 C120.145444,-0.484080481 121.321885,-0.236415857 122.429141,0.258920821 C123.536397,0.754257499 124.505231,1.42649005 125.335673,2.27563864 C126.166115,3.12478723 126.823538,4.12429089 127.307963,5.27417961 C127.792387,6.42406833 128.034596,7.65354628 128.034596,8.96265036 C128.034596,10.2717544 127.792387,11.5012324 127.307963,12.6511211 C126.823538,13.8010098 126.166115,14.8005135 125.335673,15.6496621 C124.505231,16.4988107 123.536397,17.1710432 122.429141,17.6663799 C121.321885,18.1617166 120.145444,18.4093812 118.899781,18.4093812 C117.584914,18.4093812 116.365221,18.1617166 115.240665,17.6663799 C114.116108,17.1710432 113.138623,16.4988107 112.308181,15.6496621 C111.47774,14.8005135 110.828967,13.8010098 110.361843,12.6511211 C109.89472,11.5012324 109.661161,10.2717544 109.661161,8.96265036 Z M221.174161,70.4725439 C223.630885,70.4725439 225.862664,70.0656663 227.869565,69.2518989 C229.876466,68.4381315 231.589227,67.447473 233.007898,66.2798937 L233.007898,59.2744528 L220.551333,59.2744528 C219.755493,59.2744528 218.976965,59.3982851 218.215727,59.6459535 C217.454488,59.8936218 216.771114,60.2474284 216.165583,60.7073839 C215.560053,61.1673394 215.075636,61.73343 214.712318,62.4056726 C214.348999,63.0779152 214.167343,63.8562898 214.167343,64.7408195 C214.167343,66.3683543 214.746913,67.7305098 215.906072,68.8273267 C217.06523,69.9241436 218.821242,70.4725439 221.174161,70.4725439 Z M281.785733,39.6910614 C279.502018,39.6910614 277.451895,40.2217713 275.635304,41.283207 C273.818712,42.3446427 272.287608,43.8660111 271.041945,45.8473579 L271.041945,62.2995295 C272.149201,63.9978267 273.628403,65.3688273 275.479597,66.4125725 C277.33079,67.4563176 279.398213,67.9781824 281.681928,67.9781824 C283.446617,67.9781824 285.124777,67.6509112 286.716457,66.9963592 C288.308137,66.3418072 289.700836,65.4042197 290.894597,64.1835686 C292.088357,62.9629175 293.03124,61.49462 293.723275,59.7786323 C294.41531,58.0626445 294.761322,56.1255533 294.761322,53.9673007 C294.761322,51.7736668 294.41531,49.7923498 293.723275,48.0232902 C293.03124,46.2542307 292.097007,44.7505526 290.920548,43.5122109 C289.744088,42.2738692 288.36869,41.3274365 286.79431,40.6728845 C285.219931,40.0183325 283.550422,39.6910614 281.785733,39.6910614 Z M310.429543,-0.908652654 L334.667943,-0.908652654 L334.667943,67.129038 L342.97232,67.129038 L342.97232,81.6706349 L310.429543,81.6706349 L310.429543,67.129038 L318.73392,67.129038 L318.73392,13.6329443 L310.429543,13.6329443 L310.429543,-0.908652654 Z M359.522881,57.6292356 L359.678588,59.2744528 C360.059207,60.8666064 360.70798,62.2641425 361.624926,63.467103 C362.541872,64.6700635 363.623161,65.6784123 364.868824,66.4921797 C366.114486,67.3059471 367.498535,67.9162635 369.021012,68.3231472 C370.543489,68.7300309 372.083243,68.9334697 373.640322,68.9334697 C375.1974,68.9334697 376.676603,68.8361729 378.077973,68.6415764 C379.479344,68.4469798 380.837442,68.1816249 382.152308,67.8455035 C383.467175,67.5093822 384.74742,67.120195 385.993083,66.6779301 C387.238745,66.2356652 388.50169,65.7668714 389.781955,65.2715348 L395.491214,76.1511967 C393.518915,77.3895384 391.711001,78.442113 390.067418,79.3089522 C388.423835,80.1757914 386.771626,80.8922498 385.110743,81.4583488 C383.449859,82.0244479 381.685196,82.4401707 379.816702,82.7055296 C377.948208,82.9708885 375.768331,83.103566 373.277005,83.103566 C368.60577,83.103566 364.453623,82.3163463 360.82044,80.7418833 C357.187257,79.1674203 354.133698,77.0357355 351.659674,74.3467649 C349.185649,71.6577944 347.299882,68.5089156 346.002317,64.9000341 C344.704752,61.2911526 344.055979,57.4700412 344.055979,53.4365854 C344.055979,49.4031296 344.739353,45.617399 346.106122,42.0792798 C347.472891,38.5411607 349.401909,35.4541981 351.893234,32.8182993 C354.38456,30.1824006 357.360265,28.1037867 360.82044,26.5823955 C364.280614,25.0610043 368.12135,24.3003201 372.342763,24.3003201 C376.564176,24.3003201 380.309758,25.0167785 383.579623,26.4497167 C386.849488,27.882655 389.608936,29.863972 391.858049,32.3937271 C394.107162,34.9234823 395.837224,37.8954578 397.048285,41.3097428 C398.259346,44.7240277 398.916769,48.3947713 399.020574,52.3220835 C399.124379,53.2066133 399.184932,54.0822846 399.202232,54.9491238 C399.219533,55.815963 399.193582,56.7093247 399.124379,57.6292356 L359.522881,57.6292356 Z M371.927544,37.5682005 C369.989846,37.5682005 368.337638,37.8070199 366.970869,38.284666 C365.6041,38.7623121 364.453609,39.4168543 363.519362,40.2483123 C362.585115,41.0797703 361.841189,42.026203 361.287561,43.0876387 C360.733933,44.1490745 360.301418,45.2635653 359.990002,46.4311446 L382.463722,46.4311446 C382.22151,45.2281841 381.875498,44.096003 381.425675,43.0345672 C380.975853,41.9731315 380.353031,41.035544 379.55719,40.2217766 C378.76135,39.4080092 377.749265,38.7623121 376.520903,38.284666 C375.292541,37.8070199 373.761436,37.5682005 371.927544,37.5682005 Z" id="mi" sketch:type="MSShapeGroup"></path>
            </g>
        </g>
    </g>
</svg>